<svg width="160" height="49" viewBox="0 0 160 49" fill="none" xmlns="http://www.w3.org/2000/svg">
<path d="M8.92 39.2533C7.56889 39.1111 6.39556 38.8089 5.4 38.3467C4.44 37.8844 3.60444 37.3333 2.89333 36.6933C2.21778 36.0533 1.68444 35.3422 1.29333 34.56C0.902222 33.8133 0.617778 33.0311 0.44 32.2133C0.155556 30.9689 0.0844444 29.76 0.226667 28.5867C0.368889 27.4133 0.831111 26.3644 1.61333 25.44C1.68444 25.3689 1.73778 25.2978 1.77333 25.2267H1.82667C2.04 25.0133 2.27111 24.8 2.52 24.5867C2.76889 24.3733 3.05333 24.1778 3.37333 24C3.69333 23.8222 4.04889 23.6622 4.44 23.52C4.76 23.4133 5.13333 23.3422 5.56 23.3067C5.98667 23.2711 6.44889 23.3067 6.94667 23.4133C7.62222 23.5556 7.94222 23.9467 7.90667 24.5867C7.90667 24.7644 7.85333 24.9244 7.74667 25.0667C7.67556 25.2089 7.60444 25.3511 7.53333 25.4933C7.42667 25.6356 7.32 25.7778 7.21333 25.92C7 26.1333 6.80444 26.4 6.62667 26.72C6.44889 27.0044 6.27111 27.3422 6.09333 27.7333C5.91556 28.0889 5.75556 28.4978 5.61333 28.96C5.43556 29.5644 5.32889 30.1689 5.29333 30.7733C5.25778 31.2711 5.29333 31.8044 5.4 32.3733C5.50667 32.9778 5.75556 33.5289 6.14667 34.0267C6.14667 34.0622 6.21778 34.1867 6.36 34.4C6.53778 34.6133 6.78667 34.8444 7.10667 35.0933C7.46222 35.3778 7.90667 35.6267 8.44 35.84C8.97333 36.0533 9.61333 36.1778 10.36 36.2133C11.3911 36.2489 12.2444 36.1244 12.92 35.84C13.5956 35.5556 14.1289 35.2178 14.52 34.8267C14.8756 34.5067 15.1778 34.0978 15.4267 33.6C15.6756 33.1378 15.8711 32.6578 16.0133 32.16C16.1556 31.6622 16.2444 31.1822 16.28 30.72C16.3511 30.2222 16.3689 29.7956 16.3333 29.44C16.2267 28.5511 15.96 27.6444 15.5333 26.72C15.1067 25.76 14.6622 24.8711 14.2 24.0533C13.6311 23.1289 13.0267 22.2222 12.3867 21.3333C11.5689 20.2667 10.84 19.1289 10.2 17.92C9.59556 16.6756 9.18667 15.3956 8.97333 14.08C8.76 12.7289 8.79556 11.3244 9.08 9.86667C9.36444 8.40889 9.96889 6.93333 10.8933 5.44C11.8178 3.94667 12.8311 2.86222 13.9333 2.18667C15.0356 1.51111 16.0844 1.08444 17.08 0.906667C18.2533 0.693333 19.4089 0.675555 20.5467 0.853333C21.2222 0.995556 21.88 1.26222 22.52 1.65333C23.0889 1.97333 23.6578 2.41778 24.2267 2.98667C24.8311 3.52 25.3644 4.19556 25.8267 5.01333C26.2533 5.79556 26.5733 6.70222 26.7867 7.73333C27 8.76444 27 9.95556 26.7867 11.3067C26.6089 12.3022 26.3244 13.2622 25.9333 14.1867C25.5778 15.1467 25.1689 16.0711 24.7067 16.96C24.2444 17.8489 23.6933 18.7022 23.0533 19.52C22.84 19.8044 22.5022 20.1067 22.04 20.4267C21.6133 20.7111 21.2222 20.7111 20.8667 20.4267C20.5822 20.1778 20.28 19.84 19.96 19.4133C19.6756 18.9867 19.4267 18.5422 19.2133 18.08C19 17.5822 18.8756 17.0844 18.84 16.5867C18.8044 16.0889 18.9111 15.6267 19.16 15.2C19.2667 14.9867 19.3911 14.7733 19.5333 14.56C19.6756 14.3467 19.8178 14.1333 19.96 13.92C20.4933 13.1022 20.92 12.2311 21.24 11.3067C21.5956 10.3822 21.7733 9.49333 21.7733 8.64C21.7733 7.78667 21.56 7.02222 21.1333 6.34667C20.7067 5.67111 20.0133 5.19111 19.0533 4.90667C18.4844 4.76444 17.9333 4.76444 17.4 4.90667C16.9378 5.01333 16.4756 5.24444 16.0133 5.6C15.5511 5.92 15.16 6.47111 14.84 7.25333C14.5556 7.96444 14.3067 8.74667 14.0933 9.6C13.88 10.4178 13.7911 11.3244 13.8267 12.32C13.8622 13.28 14.0222 14.3467 14.3067 15.52C14.6267 16.6578 15.1422 17.8667 15.8533 19.1467C16.6711 20.5689 17.4 21.9733 18.04 23.36C18.6089 24.5333 19.1244 25.7956 19.5867 27.1467C20.0489 28.4978 20.3156 29.6889 20.3867 30.72C20.4222 31.0756 20.3867 31.6622 20.28 32.48C20.1733 33.2978 19.8889 34.1511 19.4267 35.04C18.9644 35.9289 18.2889 36.7644 17.4 37.5467C16.5111 38.3644 15.3022 38.9156 13.7733 39.2C12.4578 39.4489 10.84 39.4667 8.92 39.2533ZM43.491 27.04C43.8466 27.1467 44.0244 27.36 44.0244 27.68C44.0244 27.8222 43.9888 27.9822 43.9177 28.16C43.5622 28.8711 43.0466 29.8311 42.371 31.04C41.6955 32.2489 40.931 33.3689 40.0777 34.4C39.8288 34.6489 39.5266 34.9156 39.171 35.2C38.8155 35.4844 38.3888 35.7333 37.891 35.9467C37.4288 36.16 36.8955 36.32 36.291 36.4267C35.6866 36.5333 35.0288 36.4978 34.3177 36.32C33.571 36.1067 32.931 35.8044 32.3977 35.4133C31.8644 35.0222 31.4022 34.5778 31.011 34.08C30.6555 33.6178 30.3533 33.12 30.1044 32.5867C29.891 32.0533 29.7133 31.5556 29.571 31.0933C29.1444 31.9467 28.7177 32.8533 28.291 33.8133C27.8644 34.7733 27.4555 35.8044 27.0644 36.9067C27.0288 37.12 26.9399 37.2444 26.7977 37.28C26.691 37.3156 26.6022 37.3333 26.531 37.3333C25.7133 37.2622 25.0733 37.0489 24.611 36.6933C24.1488 36.3733 23.811 36.0711 23.5977 35.7867H23.651C23.5799 35.7156 23.5444 35.6622 23.5444 35.6267C23.5444 34.9511 23.6155 34.1867 23.7577 33.3333C23.8999 32.5156 24.0599 31.68 24.2377 30.8267C24.4155 29.9733 24.6288 29.1556 24.8777 28.3733C25.091 27.5556 25.2866 26.8267 25.4644 26.1867C25.6422 25.6889 25.8022 25.2089 25.9444 24.7467C26.0866 24.2489 26.211 23.84 26.3177 23.52C26.5666 22.8444 26.7977 22.2222 27.011 21.6533C27.2599 21.0844 27.4733 20.5511 27.651 20.0533C28.6822 17.2444 29.7488 14.72 30.851 12.48C31.9533 10.2044 32.9666 8.26667 33.891 6.66667C34.9577 4.78222 35.971 3.11111 36.931 1.65333C37.1444 1.40444 37.3577 1.20889 37.571 1.06667C37.7488 0.924445 37.9444 0.817778 38.1577 0.746667C38.4066 0.675556 38.6555 0.72889 38.9044 0.906667C39.1177 1.08444 39.4022 1.35111 39.7577 1.70667C40.1133 2.06222 40.4155 2.47111 40.6644 2.93333C40.9488 3.39556 41.1266 3.87556 41.1977 4.37333C41.3044 4.87111 41.2333 5.35111 40.9844 5.81333C40.8066 6.13333 40.4333 6.64889 39.8644 7.36C39.331 8.03556 38.6733 8.92444 37.891 10.0267C37.1444 11.0933 36.3266 12.3733 35.4377 13.8667C34.5488 15.3244 33.6777 16.9778 32.8244 18.8267C32.4688 19.5378 31.9533 20.7111 31.2777 22.3467C30.6022 23.9467 29.9088 25.8311 29.1977 28C29.8733 26.8267 30.6022 25.6533 31.3844 24.48C32.2022 23.2711 33.0199 22.2044 33.8377 21.28C34.6555 20.3556 35.4377 19.6622 36.1844 19.2C36.9666 18.7022 37.6777 18.5956 38.3177 18.88C38.6377 19.0222 39.0288 19.2533 39.491 19.5733C39.9888 19.8578 40.4333 20.2311 40.8244 20.6933C40.9666 20.8356 41.0555 21.0133 41.091 21.2267C41.1266 21.4044 41.1088 21.6356 41.0377 21.92C41.0022 22.2044 40.8777 22.5422 40.6644 22.9333C40.4866 23.2889 40.1488 23.9289 39.651 24.8533C39.1533 25.7778 38.691 26.7556 38.2644 27.7867C38.1222 28 37.891 28.1067 37.571 28.1067C37.251 28.1067 36.9133 28.0711 36.5577 28C36.2022 27.8933 35.8466 27.7689 35.491 27.6267C35.171 27.4844 34.9222 27.36 34.7444 27.2533C34.4599 27.1111 34.2822 26.9511 34.211 26.7733C34.1755 26.56 34.1755 26.4178 34.211 26.3467C34.3888 25.7422 34.5844 25.1556 34.7977 24.5867C35.011 24.0178 35.2244 23.4844 35.4377 22.9867H35.3844C35.171 23.1644 34.9399 23.3956 34.691 23.68C34.4777 23.9289 34.2288 24.2311 33.9444 24.5867C33.6599 24.9067 33.3399 25.2978 32.9844 25.76C32.8777 26.0089 32.771 26.3467 32.6644 26.7733C32.5577 27.1644 32.4866 27.6089 32.451 28.1067C32.4155 28.6044 32.4333 29.12 32.5044 29.6533C32.611 30.1511 32.8066 30.6133 33.091 31.04C33.411 31.6089 33.891 32.0711 34.531 32.4267C35.171 32.7111 35.7399 32.8889 36.2377 32.96C36.771 33.0667 37.2333 33.0844 37.6244 33.0133C38.1222 32.9067 38.5488 32.7111 38.9044 32.4267C39.2955 32.1778 39.5799 31.9644 39.7577 31.7867C40.2555 31.1822 40.7355 30.4889 41.1977 29.7067C41.6599 28.9244 42.0155 28.2844 42.2644 27.7867C42.2999 27.6444 42.3888 27.5022 42.531 27.36C42.7799 27.1111 43.0999 27.0044 43.491 27.04ZM56.57 27.4667C56.1789 28.32 55.6633 29.3333 55.0233 30.5067C54.4189 31.6444 53.7078 32.7111 52.89 33.7067C52.0722 34.7022 51.1478 35.4844 50.1167 36.0533C49.1211 36.6578 48.0544 36.8 46.9167 36.48C46.2767 36.3022 45.7611 35.9822 45.37 35.52C44.9789 35.0933 44.6589 34.56 44.41 33.92C44.1967 33.3156 44.0544 32.6578 43.9833 31.9467C43.9122 31.2 43.9122 30.4711 43.9833 29.76C44.0544 28.8356 44.1967 27.9644 44.41 27.1467C44.6233 26.2933 44.8544 25.5467 45.1033 24.9067C45.3878 24.16 45.69 23.4667 46.01 22.8267C46.6144 21.6889 47.2722 20.7467 47.9833 20C48.5878 19.36 49.2989 18.8622 50.1167 18.5067C50.9344 18.1511 51.8056 18.2578 52.73 18.8267C53.0856 18.4711 53.4767 18.2044 53.9033 18.0267C54.3656 17.8489 54.8456 17.7956 55.3433 17.8667C56.1256 17.9733 56.7122 18.3111 57.1033 18.88C57.4944 19.4489 57.7256 20.1067 57.7967 20.8533C57.9033 21.6 57.9033 22.3822 57.7967 23.2C57.69 24.0178 57.5656 24.7111 57.4233 25.28C58.3478 24.9956 59.2011 24.5867 59.9833 24.0533C60.7656 23.52 61.3522 23.0578 61.7433 22.6667C61.9211 22.4889 62.0811 22.3644 62.2233 22.2933C62.3656 22.2222 62.4722 22.2044 62.5433 22.24C62.65 22.2756 62.7211 22.4356 62.7567 22.72C62.7922 22.9333 62.7922 23.1467 62.7567 23.36C62.6856 23.7867 62.5256 24.16 62.2767 24.48C61.7078 25.12 60.9078 25.7422 59.8767 26.3467C58.8456 26.9156 57.7433 27.2889 56.57 27.4667ZM53.1567 22.72C53.1211 23.1467 53.1567 23.52 53.2633 23.84C53.37 24.1244 53.5122 24.3733 53.69 24.5867C53.8678 24.8 54.0633 24.9778 54.2767 25.12C54.49 25.2267 54.6678 25.2978 54.81 25.3333C55.3078 23.7333 55.4678 22.5422 55.29 21.76C55.2189 21.5111 55.0767 21.3333 54.8633 21.2267C54.65 21.0844 54.4189 21.0489 54.17 21.12C53.9567 21.1556 53.7433 21.2978 53.53 21.5467C53.3522 21.7956 53.2278 22.1867 53.1567 22.72ZM47.93 29.7067C47.6456 30.6667 47.5211 31.4311 47.5567 32C47.5922 32.5689 47.6811 32.9956 47.8233 33.28C47.9656 33.6356 48.1789 33.8489 48.4633 33.92C48.9256 34.0622 49.4233 33.9556 49.9567 33.6C50.49 33.2444 51.0056 32.7467 51.5033 32.1067C52.0011 31.4667 52.4633 30.72 52.89 29.8667C53.3522 29.0133 53.7611 28.1422 54.1167 27.2533C53.6189 27.1111 53.1389 26.8444 52.6767 26.4533C52.0722 25.9556 51.6456 25.3511 51.3967 24.64C51.1833 23.9289 51.1122 23.2 51.1833 22.4533C50.7211 22.9156 50.2944 23.5378 49.9033 24.32C49.5122 25.1022 49.1744 25.9022 48.89 26.72C48.5344 27.6444 48.2144 28.64 47.93 29.7067ZM72.5544 27.4667C72.1633 28.32 71.6477 29.3333 71.0077 30.5067C70.4033 31.6444 69.6922 32.7111 68.8744 33.7067C68.0566 34.7022 67.1322 35.4844 66.101 36.0533C65.1055 36.6578 64.0388 36.8 62.901 36.48C62.261 36.3022 61.7455 35.9822 61.3544 35.52C60.9633 35.0933 60.6433 34.56 60.3944 33.92C60.181 33.3156 60.0388 32.6578 59.9677 31.9467C59.8966 31.2 59.8966 30.4711 59.9677 29.76C60.0388 28.8356 60.181 27.9644 60.3944 27.1467C60.6077 26.2933 60.8388 25.5467 61.0877 24.9067C61.3722 24.16 61.6744 23.4667 61.9944 22.8267C62.5988 21.6889 63.2566 20.7467 63.9677 20C64.5722 19.36 65.2833 18.8622 66.101 18.5067C66.9188 18.1511 67.7899 18.2578 68.7144 18.8267C69.0699 18.4711 69.461 18.2044 69.8877 18.0267C70.3499 17.8489 70.8299 17.7956 71.3277 17.8667C72.1099 17.9733 72.6966 18.3111 73.0877 18.88C73.4788 19.4489 73.7099 20.1067 73.781 20.8533C73.8877 21.6 73.8877 22.3822 73.781 23.2C73.6744 24.0178 73.5499 24.7111 73.4077 25.28C74.3322 24.9956 75.1855 24.5867 75.9677 24.0533C76.7499 23.52 77.3366 23.0578 77.7277 22.6667C77.9055 22.4889 78.0655 22.3644 78.2077 22.2933C78.3499 22.2222 78.4566 22.2044 78.5277 22.24C78.6344 22.2756 78.7055 22.4356 78.741 22.72C78.7766 22.9333 78.7766 23.1467 78.741 23.36C78.6699 23.7867 78.5099 24.16 78.261 24.48C77.6922 25.12 76.8922 25.7422 75.861 26.3467C74.8299 26.9156 73.7277 27.2889 72.5544 27.4667ZM69.141 22.72C69.1055 23.1467 69.141 23.52 69.2477 23.84C69.3544 24.1244 69.4966 24.3733 69.6744 24.5867C69.8522 24.8 70.0477 24.9778 70.261 25.12C70.4744 25.2267 70.6522 25.2978 70.7944 25.3333C71.2922 23.7333 71.4522 22.5422 71.2744 21.76C71.2033 21.5111 71.061 21.3333 70.8477 21.2267C70.6344 21.0844 70.4033 21.0489 70.1544 21.12C69.941 21.1556 69.7277 21.2978 69.5144 21.5467C69.3366 21.7956 69.2122 22.1867 69.141 22.72ZM63.9144 29.7067C63.6299 30.6667 63.5055 31.4311 63.541 32C63.5766 32.5689 63.6655 32.9956 63.8077 33.28C63.9499 33.6356 64.1633 33.8489 64.4477 33.92C64.9099 34.0622 65.4077 33.9556 65.941 33.6C66.4744 33.2444 66.9899 32.7467 67.4877 32.1067C67.9855 31.4667 68.4477 30.72 68.8744 29.8667C69.3366 29.0133 69.7455 28.1422 70.101 27.2533C69.6033 27.1111 69.1233 26.8444 68.661 26.4533C68.0566 25.9556 67.6299 25.3511 67.381 24.64C67.1677 23.9289 67.0966 23.2 67.1677 22.4533C66.7055 22.9156 66.2788 23.5378 65.8877 24.32C65.4966 25.1022 65.1588 25.9022 64.8744 26.72C64.5188 27.6444 64.1988 28.64 63.9144 29.7067ZM89.5521 0.906667C89.7654 1.04889 90.0499 1.29778 90.4054 1.65333C90.761 2.00889 91.0632 2.41778 91.3121 2.88C91.5965 3.34222 91.7743 3.84 91.8454 4.37333C91.9521 4.87111 91.881 5.33333 91.6321 5.76C91.4543 6.08 91.0454 6.63111 90.4054 7.41333C89.801 8.16 89.0899 9.13778 88.2721 10.3467C87.4543 11.5556 86.5654 12.9778 85.6054 14.6133C84.6454 16.2133 83.7387 18.0444 82.8854 20.1067C82.281 21.4578 81.7299 22.8978 81.2321 24.4267C80.7699 25.9556 80.3432 27.5911 79.9521 29.3333C79.8099 29.9022 79.721 30.4 79.6854 30.8267C79.6854 31.2178 79.7032 31.5556 79.7387 31.84V32.0533C79.8099 32.4444 79.9876 32.6933 80.2721 32.8C80.6987 32.9067 81.1254 32.7822 81.5521 32.4267C82.0143 32.0711 82.4588 31.6089 82.8854 31.04C83.3121 30.4711 83.6854 29.8844 84.0054 29.28C84.361 28.64 84.6454 28.1244 84.8587 27.7333C84.8943 27.6267 84.9832 27.5022 85.1254 27.36C85.2321 27.2889 85.3565 27.2178 85.4987 27.1467C85.6765 27.04 85.8721 27.0044 86.0854 27.04C86.2987 27.0756 86.4232 27.1467 86.4587 27.2533C86.5299 27.36 86.5654 27.4844 86.5654 27.6267C86.5654 27.7689 86.5299 27.9467 86.4587 28.16C86.1743 28.7644 85.7299 29.6178 85.1254 30.72C84.521 31.7867 83.8454 32.8178 83.0987 33.8133C82.921 34.0267 82.7432 34.24 82.5654 34.4533C82.3876 34.6311 82.1921 34.8089 81.9787 34.9867C81.801 35.2 81.6232 35.3778 81.4454 35.52L81.2321 35.7333C81.0187 35.8756 80.7521 36 80.4321 36.1067C80.1476 36.2489 79.8276 36.3378 79.4721 36.3733C79.3299 36.4089 79.081 36.3911 78.7254 36.32C78.0499 36.1778 77.5343 35.8044 77.1788 35.2C76.8232 34.6311 76.5565 34.0089 76.3787 33.3333C76.201 32.5511 76.0943 31.6978 76.0588 30.7733C76.0232 30.3822 76.0232 30.0089 76.0588 29.6533C76.0588 29.2622 76.0765 28.8711 76.1121 28.48C76.1832 27.6978 76.2899 26.9511 76.4321 26.24C76.6099 25.4933 76.7699 24.8356 76.9121 24.2667C77.0543 23.6267 77.2321 23.0044 77.4454 22.4C78.5121 19.2711 79.6321 16.4267 80.8054 13.8667C82.0143 11.3067 83.1165 9.12 84.1121 7.30667C85.2854 5.17333 86.441 3.28889 87.5788 1.65333C87.7921 1.40444 88.0054 1.20889 88.2187 1.06667C88.3965 0.924445 88.5921 0.817778 88.8054 0.746667C89.0543 0.675556 89.3032 0.72889 89.5521 0.906667ZM88.7182 27.2C89.536 24.8889 90.2471 22.9333 90.8516 21.3333C91.4916 19.7333 91.8471 18.8444 91.9182 18.6667C92.9493 16.0711 93.9805 13.7244 95.0116 11.6267C96.0782 9.52889 97.0205 7.73333 97.8382 6.24C98.7982 4.53333 99.7405 3.00444 100.665 1.65333C100.878 1.40444 101.092 1.20889 101.305 1.06667C101.483 0.924445 101.696 0.817778 101.945 0.746667C102.194 0.675556 102.425 0.72889 102.638 0.906667C102.852 1.08444 103.136 1.35111 103.492 1.70667C103.847 2.06222 104.149 2.47111 104.398 2.93333C104.683 3.39556 104.878 3.87556 104.985 4.37333C105.092 4.87111 105.02 5.35111 104.772 5.81333C104.594 6.13333 104.22 6.64889 103.652 7.36C103.083 8.07111 102.407 8.97778 101.625 10.08C100.843 11.1822 99.9893 12.48 99.0649 13.9733C98.176 15.4667 97.3049 17.1556 96.4516 19.04C96.0249 19.9644 95.5271 21.0844 94.9582 22.4C94.4249 23.7156 93.8738 25.1378 93.3049 26.6667C93.7671 26.5244 94.176 26.3822 94.5316 26.24C94.9227 26.0978 95.2605 25.9733 95.5449 25.8667C95.7227 25.7956 95.8827 25.76 96.0249 25.76C96.1671 25.76 96.3093 25.7778 96.4516 25.8133C96.6293 25.8489 96.8071 25.9556 96.9849 26.1333C97.1271 26.3111 97.1627 26.4711 97.0916 26.6133C97.056 26.72 97.0027 26.8267 96.9316 26.9333C96.7893 27.0756 96.6471 27.1822 96.5049 27.2533C96.1849 27.3956 95.7582 27.5733 95.2249 27.7867C94.6916 27.9644 94.1227 28.16 93.5182 28.3733C93.4471 28.4089 93.3405 28.4444 93.1982 28.48C93.056 28.5156 92.8782 28.5689 92.6649 28.64C92.5582 28.9956 92.4516 29.3511 92.3449 29.7067C92.2382 30.0622 92.1316 30.4178 92.0249 30.7733C91.7405 31.6622 91.4916 32.5156 91.2782 33.3333C91.0649 34.1511 90.8693 34.9511 90.6916 35.7333C90.0516 38.6133 89.6427 41.0311 89.4649 42.9867C89.3227 44.9778 89.2693 46.4 89.3049 47.2533C89.3049 47.5378 89.2516 47.7333 89.1449 47.84C89.0738 47.9822 89.0027 48.0889 88.9316 48.16C88.8249 48.2311 88.7182 48.2667 88.6116 48.2667C87.9716 48.3022 87.4027 48.2311 86.9049 48.0533C86.4427 47.8756 86.0693 47.6622 85.7849 47.4133C85.3938 47.1289 85.0916 46.8089 84.8782 46.4533C84.5227 45.8489 84.3805 44.9244 84.4516 43.68C84.5227 42.4711 84.736 41.0667 85.0916 39.4667C85.4116 37.9022 85.8382 36.2311 86.3716 34.4533C86.8693 32.6756 87.4205 30.9333 88.0249 29.2267H87.5449H87.5982C87.4205 29.2267 87.2782 29.1378 87.1716 28.96C87.0649 28.7822 86.9938 28.5867 86.9582 28.3733C86.9227 28.1244 86.9049 27.8933 86.9049 27.68C86.9049 27.4311 86.9049 27.2533 86.9049 27.1467C86.9049 26.8978 86.9938 26.8089 87.1716 26.88C87.6338 27.0222 88.1493 27.1289 88.7182 27.2ZM116.681 27.04C117.036 27.1467 117.214 27.36 117.214 27.68C117.214 27.8222 117.178 27.9822 117.107 28.16C116.894 28.6222 116.574 29.2444 116.147 30.0267C115.756 30.7733 115.294 31.5378 114.761 32.32C114.263 33.1022 113.712 33.8311 113.107 34.5067C112.538 35.2178 111.934 35.7511 111.294 36.1067C110.903 36.3556 110.512 36.4978 110.121 36.5333C109.73 36.6044 109.374 36.6222 109.054 36.5867C108.663 36.5511 108.307 36.48 107.987 36.3733C107.276 36.0533 106.778 35.5556 106.494 34.88C106.245 34.2044 106.138 33.4044 106.174 32.48C105.356 33.7244 104.45 34.7022 103.454 35.4133C102.494 36.1244 101.57 36.4444 100.681 36.3733C100.041 36.3378 99.4006 36.16 98.7606 35.84C98.1562 35.52 97.694 34.9867 97.374 34.24C97.0184 33.5289 96.8762 32.5689 96.9473 31.36C96.9828 30.1511 97.3384 28.64 98.014 26.8267C98.6895 25.0133 99.454 23.5556 100.307 22.4533C101.161 21.3156 102.014 20.4622 102.867 19.8933C103.721 19.2889 104.556 18.9333 105.374 18.8267C106.227 18.72 106.974 18.7911 107.614 19.04C108.147 19.2533 108.538 19.5556 108.787 19.9467C109.072 20.3378 109.267 20.7644 109.374 21.2267C109.552 20.8711 109.712 20.5156 109.854 20.16C109.925 20.0178 109.996 19.8756 110.067 19.7333C110.138 19.52 110.245 19.3422 110.387 19.2C110.494 19.0578 110.618 18.9333 110.761 18.8267C110.903 18.72 111.063 18.7022 111.241 18.7733C111.561 18.88 111.987 19.0933 112.521 19.4133C113.054 19.7333 113.552 20.16 114.014 20.6933C114.156 20.8356 114.245 21.0133 114.281 21.2267C114.316 21.4044 114.298 21.6356 114.227 21.92C114.192 22.2044 114.067 22.5422 113.854 22.9333C113.712 23.1822 113.498 23.5733 113.214 24.1067C112.93 24.64 112.61 25.2622 112.254 25.9733C111.934 26.6489 111.614 27.3778 111.294 28.16C110.974 28.9067 110.725 29.6178 110.547 30.2933C110.37 30.9333 110.298 31.4844 110.334 31.9467C110.37 32.4089 110.565 32.6933 110.921 32.8C111.312 32.9422 111.721 32.8178 112.147 32.4267C112.61 32.0711 113.054 31.6267 113.481 31.0933C113.907 30.5244 114.281 29.9378 114.601 29.3333C114.956 28.6933 115.241 28.1778 115.454 27.7867C115.49 27.6444 115.578 27.5022 115.721 27.36C115.97 27.1111 116.29 27.0044 116.681 27.04ZM107.561 25.8667C107.774 25.12 107.898 24.5333 107.934 24.1067C107.97 23.6444 107.934 23.2889 107.827 23.04C107.756 22.7556 107.65 22.5778 107.507 22.5067C107.401 22.4 107.312 22.3289 107.241 22.2933C107.134 22.2578 106.956 22.2578 106.707 22.2933C106.458 22.2933 106.121 22.4533 105.694 22.7733C105.303 23.0933 104.841 23.6267 104.307 24.3733C103.774 25.12 103.17 26.2222 102.494 27.68C101.818 29.1733 101.41 30.3111 101.267 31.0933C101.125 31.8756 101.09 32.4622 101.161 32.8533C101.267 33.28 101.498 33.5289 101.854 33.6C102.53 33.7067 103.187 33.3867 103.827 32.64C104.467 31.9289 105.054 31.1111 105.587 30.1867C106.192 29.12 106.778 27.8756 107.347 26.4533C107.347 26.4178 107.365 26.3822 107.401 26.3467L107.561 25.8667ZM134.506 36.32C133.617 35.9289 133.066 35.2178 132.852 34.1867C132.674 33.1556 132.674 31.9822 132.852 30.6667C133.03 29.3511 133.35 28.0178 133.812 26.6667C134.274 25.28 134.737 24.0356 135.199 22.9333L135.092 22.9867C134.381 23.9111 133.634 24.9956 132.852 26.24C132.177 27.3067 131.43 28.64 130.612 30.24C129.83 31.84 129.048 33.6889 128.266 35.7867C128.159 35.9644 128.034 36.0889 127.892 36.16C127.786 36.2667 127.679 36.3556 127.572 36.4267C127.466 36.4622 127.359 36.48 127.252 36.48C127.146 36.48 127.057 36.48 126.986 36.48C126.701 36.4444 126.434 36.3733 126.186 36.2667C125.972 36.1956 125.812 36.1244 125.706 36.0533C124.994 35.5556 124.568 34.7733 124.426 33.7067C124.319 32.6756 124.372 31.5378 124.586 30.2933C124.799 29.0489 125.119 27.7689 125.546 26.4533C126.008 25.1378 126.452 23.9644 126.879 22.9333L126.772 22.9867C125.99 23.9822 125.19 25.1733 124.372 26.56C123.661 27.7333 122.879 29.1911 122.026 30.9333C121.172 32.64 120.337 34.6133 119.519 36.8533C119.483 37.0667 119.394 37.1911 119.252 37.2267C119.146 37.2978 119.057 37.3333 118.986 37.3333C118.274 37.2622 117.723 37.1022 117.332 36.8533C116.906 36.6044 116.568 36.3378 116.319 36.0533C116.141 35.8756 116.052 35.6622 116.052 35.4133C116.017 35.2711 116.017 35.1644 116.052 35.0933C116.088 34.4178 116.177 33.6711 116.319 32.8533C116.461 32.0711 116.621 31.2889 116.799 30.5067C116.977 29.6889 117.172 28.9067 117.386 28.16C117.599 27.4133 117.794 26.7378 117.972 26.1333C118.114 25.6356 118.257 25.1556 118.399 24.6933C118.577 24.2311 118.719 23.84 118.826 23.52C118.968 23.1644 119.057 22.8978 119.092 22.72C119.27 22.1511 119.448 21.6178 119.626 21.12C119.839 20.5867 120.034 20.1244 120.212 19.7333C120.39 19.3067 120.55 18.8978 120.692 18.5067C120.692 18.4711 120.71 18.4356 120.746 18.4C120.746 18.3644 120.781 18.2756 120.852 18.1333C120.959 17.9911 121.083 17.8489 121.226 17.7067C121.368 17.5644 121.563 17.5289 121.812 17.6C122.097 17.6711 122.488 17.8489 122.986 18.1333C123.483 18.3822 123.963 18.7556 124.426 19.2533C124.461 19.2889 124.497 19.36 124.532 19.4667C124.568 19.5378 124.603 19.6267 124.639 19.7333C124.674 19.84 124.692 19.9644 124.692 20.1067C124.692 20.2844 124.674 20.48 124.639 20.6933C124.603 20.8711 124.497 21.0844 124.319 21.3333C124.319 21.4044 124.301 21.4578 124.266 21.4933C124.23 21.5644 124.123 21.7956 123.946 22.1867C123.768 22.5422 123.608 22.8622 123.466 23.1467C123.359 23.4311 123.234 23.7333 123.092 24.0533C122.95 24.3733 122.843 24.64 122.772 24.8533L122.292 26.1333C122.861 25.1022 123.466 24.0889 124.106 23.0933C124.746 22.0978 125.386 21.2444 126.026 20.5333C126.701 19.8222 127.359 19.3067 127.999 18.9867C128.639 18.6667 129.226 18.6311 129.759 18.88C130.079 19.0222 130.47 19.2356 130.932 19.52C131.394 19.8044 131.839 20.1778 132.266 20.64C132.372 20.8178 132.443 21.0133 132.479 21.2267C132.514 21.4044 132.514 21.6356 132.479 21.92C132.443 22.2044 132.319 22.5422 132.106 22.9333C131.999 23.1111 131.839 23.3956 131.626 23.7867C131.412 24.1422 131.181 24.5689 130.932 25.0667C130.683 25.5644 130.417 26.1156 130.132 26.72C129.848 27.2889 129.599 27.8578 129.386 28.4267C129.99 27.2533 130.648 26.0444 131.359 24.8C132.106 23.52 132.87 22.4 133.652 21.44C134.434 20.4444 135.199 19.6978 135.946 19.2C136.728 18.6667 137.439 18.56 138.079 18.88C138.399 19.0222 138.79 19.2356 139.252 19.52C139.714 19.8044 140.159 20.1778 140.586 20.64C140.692 20.8178 140.763 21.0133 140.799 21.2267C140.834 21.4044 140.834 21.6356 140.799 21.92C140.763 22.2044 140.639 22.5422 140.426 22.9333C140.283 23.1822 140.07 23.5733 139.786 24.1067C139.501 24.64 139.181 25.2622 138.826 25.9733C138.506 26.6489 138.186 27.3778 137.866 28.16C137.546 28.9067 137.297 29.6178 137.119 30.2933C136.941 30.9333 136.852 31.4844 136.852 31.9467C136.888 32.4089 137.083 32.6933 137.439 32.8C137.866 32.9067 138.292 32.7822 138.719 32.4267C139.181 32.0711 139.626 31.6089 140.052 31.04C140.479 30.4711 140.852 29.8844 141.172 29.28C141.528 28.64 141.812 28.1244 142.026 27.7333C142.061 27.5911 142.15 27.4489 142.292 27.3067C142.506 27.0933 142.826 27.0044 143.252 27.04C143.466 27.0756 143.59 27.1467 143.626 27.2533C143.697 27.36 143.732 27.4844 143.732 27.6267C143.732 27.7689 143.697 27.9467 143.626 28.16C143.412 28.6222 143.11 29.2267 142.719 29.9733C142.328 30.72 141.866 31.4844 141.332 32.2667C140.834 33.0489 140.283 33.7956 139.679 34.5067C139.074 35.2178 138.452 35.7511 137.812 36.1067C137.421 36.32 137.03 36.4444 136.639 36.48C136.248 36.5511 135.892 36.5689 135.572 36.5333C135.181 36.4978 134.826 36.4267 134.506 36.32ZM144.461 26.8267C145.136 25.0133 145.901 23.5556 146.754 22.4533C147.607 21.3156 148.461 20.4622 149.314 19.8933C150.167 19.2889 151.003 18.9333 151.821 18.8267C152.674 18.72 153.421 18.7911 154.061 19.04C154.665 19.2889 155.092 19.6622 155.341 20.16C155.625 20.6222 155.803 21.12 155.874 21.6533C155.91 21.8311 155.927 22.0267 155.927 22.24C155.963 22.4533 155.963 22.7022 155.927 22.9867C155.892 23.4844 155.767 24.1422 155.554 24.96C155.341 25.7422 154.95 26.5422 154.381 27.36C153.812 28.1778 152.994 28.96 151.927 29.7067C150.896 30.4178 149.51 30.9333 147.767 31.2533C147.696 31.8578 147.732 32.4444 147.874 33.0133C148.016 33.5822 148.425 33.9911 149.101 34.24C149.243 34.3111 149.403 34.3467 149.581 34.3467H149.634L149.687 34.4C150.327 34.4711 150.932 34.4356 151.501 34.2933C152.07 34.1511 152.585 33.9378 153.047 33.6533C153.545 33.4044 153.972 33.1022 154.327 32.7467C154.718 32.4267 155.056 32.1067 155.341 31.7867C155.412 31.7156 155.465 31.6444 155.501 31.5733C155.572 31.5022 155.643 31.4311 155.714 31.36C155.927 31.0756 156.052 30.9156 156.087 30.88C156.478 30.3467 156.834 29.7956 157.154 29.2267C157.474 28.6578 157.723 28.1778 157.901 27.7867C157.936 27.6444 158.025 27.5022 158.167 27.36C158.416 27.1111 158.736 27.0044 159.127 27.04C159.341 27.1111 159.465 27.2 159.501 27.3067C159.572 27.4133 159.607 27.5378 159.607 27.68C159.607 27.8222 159.572 27.9822 159.501 28.16C159.323 28.5156 159.11 28.9422 158.861 29.44C158.647 29.9022 158.363 30.4178 158.007 30.9867C157.865 31.3422 157.527 31.8933 156.994 32.64C156.923 32.7467 156.834 32.8533 156.727 32.96C156.656 33.1022 156.55 33.2622 156.407 33.44C155.696 34.2578 154.807 35.0578 153.741 35.84C152.71 36.6578 151.483 37.1022 150.061 37.1733C149.634 37.2444 149.154 37.2444 148.621 37.1733C147.305 37.0311 146.274 36.7289 145.527 36.2667C144.816 35.8044 144.283 35.2356 143.927 34.56C143.607 33.9556 143.43 33.2978 143.394 32.5867C143.323 31.8756 143.341 31.1644 143.447 30.4533V30.4C143.625 29.3333 143.963 28.1422 144.461 26.8267ZM148.941 27.68C148.798 27.9644 148.674 28.2133 148.567 28.4267C148.496 28.64 148.425 28.8533 148.354 29.0667C149.314 28.9244 150.132 28.6222 150.807 28.16C151.483 27.6978 152.052 27.1822 152.514 26.6133C152.976 26.0444 153.314 25.4933 153.527 24.96C153.776 24.3911 153.918 23.9289 153.954 23.5733C154.025 22.9333 153.954 22.56 153.741 22.4533C153.563 22.3111 153.438 22.24 153.367 22.24C153.19 22.24 152.958 22.3111 152.674 22.4533C152.39 22.56 152.052 22.8089 151.661 23.2C151.305 23.5556 150.896 24.0889 150.434 24.8C149.972 25.5111 149.474 26.4711 148.941 27.68Z" fill="black"/>
</svg>
